<svg version="1" xmlns="http://www.w3.org/2000/svg" width="429.333" height="429.333" viewBox="0 0 322.000000 322.000000"><path d="M159.8 15.5c-.3.6-2.9 9.1-5.7 19-2.8 9.9-9.1 32.2-14.1 49.5-5 17.3-9.8 34-10.6 37-.8 3-1.7 6.2-1.9 7-.4 1.4-7.6 1.5-60.4 1.5-45.8-.1-59.6.2-58.3 1.1.9.6 23 14.7 49.1 31.3l47.4 30.2 5.3-3.8c12-8.7 24.6-17.8 34.9-25.4 6.1-4.4 11.9-8.7 13-9.5 1.1-.8 8.8-6.4 17-12.5 8.3-6.1 15.6-11.4 16.2-11.8 1-.5-.5-6.8-5.8-25.1-3.8-13.5-7.6-26.8-8.4-29.5-1-3.8-10-35.3-16.9-59-.1-.6-.4-.6-.8 0zM195.4 130c-.8.3-4.3 4.4-7.7 9.2-3.4 4.7-12.5 17.3-20.1 27.9-7.7 10.7-16.3 22.5-19.1 26.4-2.9 3.8-21.1 29-40.5 56-19.4 26.9-36.5 50.6-37.9 52.5-3.1 4.2-5.1 5.7 50.7-38.8l39.3-31.4 3.7 2.9c2 1.6 20.4 15.9 40.7 31.8 20.4 15.9 37.2 29.1 37.5 29.5 1.7 1.8 12 8.9 12 8.2 0-.8-6.2-18.2-20-55.7-2.6-7.2-7.5-20.9-11-30.5-3.4-9.6-6.9-18.9-7.6-20.7-.8-1.7-1.4-3.5-1.4-4s3.6-3.1 8-5.8c29.6-18.4 89.7-57.1 89.3-57.5-.6-.7-113.9-.7-115.9 0z"/></svg>