<?xml version="1.0" encoding="UTF-8" standalone="no"?>
<!-- Created with Inkscape (http://www.inkscape.org/) -->

<svg
   xmlns:dc="http://purl.org/dc/elements/1.1/"
   xmlns:cc="http://creativecommons.org/ns#"
   xmlns:rdf="http://www.w3.org/1999/02/22-rdf-syntax-ns#"
   xmlns:svg="http://www.w3.org/2000/svg"
   xmlns="http://www.w3.org/2000/svg"
   version="1.1"
   width="527.93872"
   height="78.973358"
   id="svg3434">
  <defs
     id="defs3436" />
  <g
     transform="translate(-164.60205,-461.44693)"
     id="layer1">
    <path
       d="m 165.60205,519.64474 14.5252,-5.59121 c 3.01985,7.26558 7.81573,11.62493 17.99353,11.62493 7.36725,0 12.06148,-3.01387 12.06148,-7.93533 0,-6.81112 -8.1566,-8.37785 -17.21017,-10.61434 -11.50534,-2.78663 -24.68506,-6.69749 -24.68506,-23.11831 0,-12.62957 10.84157,-21.56355 28.82315,-21.56355 15.75107,0 24.91827,6.92474 29.15802,18.32244 l -15.52383,4.68824 c -2.12885,-6.14734 -7.04433,-8.93398 -13.85545,-8.93398 -6.14734,0 -10.27946,2.56538 -10.27946,6.92473 0,6.58986 7.26559,7.81574 17.53907,10.27946 12.40233,2.90026 24.0153,7.48087 24.0153,23.01666 0,13.17972 -9.71734,22.67581 -29.71415,22.67581 -19.77555,0 -28.48827,-8.48549 -32.84763,-19.77555 m 69.82139,1.79397 0,-26.82586 -6.47624,0 0,-11.72062 6.58986,0 1.11824,-16.98293 15.64344,0 0,16.98293 11.39172,0 0,11.72062 -11.39172,0 0,24.02128 c 0,4.36534 1.78799,6.82308 5.9201,7.37921 2.12287,0.22723 4.23976,0.22723 6.59584,0 l 0,12.40232 c -2.68498,0.33488 -6.59584,0.66975 -10.0582,0.66975 -12.62358,0 -19.33304,-5.92608 -19.33304,-17.6467 m 32.01642,2.33216 c 0,-12.27674 11.06282,-18.43007 30.3839,-20.3257 2.12885,-0.22723 4.36533,-0.44849 6.70946,-0.56211 0,-0.55613 -0.11362,-2.2305 -0.11362,-2.67302 -0.33488,-4.35935 -2.90026,-7.04433 -8.93996,-7.04433 -6.47624,0 -9.60971,2.23649 -10.716,6.93071 l -15.87067,-1.45311 c 2.68498,-11.06283 11.94786,-16.76168 28.26702,-16.76168 18.65133,0 24.02128,8.04895 24.02128,20.00279 l 0,25.58204 c 0,3.23513 0.22126,8.71272 1.23187,10.83559 l -16.54043,0 c -0.66975,-1.11825 -0.891,-4.03046 -0.891,-7.14599 -4.80785,4.90352 -10.62032,7.81574 -20.4453,7.81574 -10.27946,0 -17.09655,-5.81247 -17.09655,-15.20093 m 37.09336,-2.45176 0,-9.72333 c -2.12287,0.1196 -4.1381,0.34684 -5.92609,0.68171 -8.49147,1.45312 -13.29333,4.68825 -13.29333,9.93861 0,4.12613 2.68497,6.02774 7.03237,6.02774 5.70483,0 9.84292,-3.34874 12.18705,-6.92473 m 22.74756,-38.42688 16.54042,0 0,11.61298 c 2.56538,-6.58986 9.15524,-12.62358 17.30585,-12.62358 1.68633,0 3.13347,0.1196 4.03046,0.34085 l 0,13.96309 c -1.11825,-0.22126 -3.58197,-0.33488 -5.0291,-0.33488 -6.58986,0 -12.18107,3.34875 -15.30259,9.26886 l 0,33.1825 -17.54504,0 0,-55.40982 z m 43.53372,-5.0291 -19.32706,0 0,-14.0767 56.08554,0 0,14.0767 -19.1058,0 0,60.43892 -17.65268,0 0,-60.43892 z m 25.04983,5.0291 16.53444,0 0,11.61298 c 2.56538,-6.58986 9.16121,-12.62358 17.31183,-12.62358 1.67437,0 3.13347,0.1196 4.02447,0.34085 l 0,13.96309 c -1.12422,-0.22126 -3.58196,-0.33488 -5.0291,-0.33488 -6.58986,0 -12.18107,3.34875 -15.30856,9.26886 l 0,33.1825 -17.53308,0 0,-55.40982 z m 43.73703,-19.1058 17.65268,0 0,14.63283 -17.65268,0 0,-14.63283 z m 0.11362,19.1058 17.43143,0 0,55.4158 -17.43143,0 0,-55.4158 z m 36.82426,47.24724 -2.45774,8.16258 -10.49473,0 0,-74.51562 17.08459,0 0,27.59129 c 3.13347,-4.80186 8.27021,-9.49609 16.87529,-9.49609 12.7372,0 19.66194,9.72333 19.66194,28.60787 0,18.9862 -9.16122,28.59591 -22.34691,28.59591 -9.0476,0 -14.07072,-3.35472 -18.32244,-8.94594 m 22.78943,-19.09384 c 0,-11.73257 -2.45775,-17.31781 -9.16122,-17.31781 -5.0291,0 -8.15659,2.90026 -9.37649,8.26423 l 0,14.53118 c 0,8.03699 3.45638,13.17971 9.27483,13.17971 6.80513,0 9.26288,-6.15332 9.26288,-18.65731 m 22.9748,10.49474 0,-38.64814 17.43142,0 0,37.76311 c 0,5.24438 2.23051,7.25961 6.8171,7.25961 4.13211,0 7.14599,-2.7986 8.93398,-6.47624 l 0,-38.54648 17.43142,0 0,55.40982 -16.76167,0 0.11362,-7.92936 c -3.79127,5.92011 -9.83695,8.82634 -17.76631,8.82634 -9.49609,0 -16.19956,-5.36995 -16.19956,-17.65866 m 57.33534,-38.64814 16.64806,0 0,9.16122 c 3.24111,-4.58061 8.48549,-10.17182 17.87394,-10.17182 11.3977,0 15.97831,6.81709 15.97831,17.43143 l 0,38.98899 -17.32379,0 0,-38.43286 c 0,-3.46237 -1.78201,-6.03373 -6.02177,-6.03373 -4.5806,0 -7.60046,3.13347 -9.83694,6.4882 l 0,37.97839 -17.31781,0 0,-55.40982 z m 55.37991,28.4823 c 0,-17.87394 13.17972,-29.4929 28.58993,-29.4929 17.32379,0 27.48365,11.3977 27.93215,28.60787 0,1.22588 0,2.11689 -0.10764,3.34277 l -38.3312,0 c 0.22126,9.9386 5.37594,14.29796 12.18107,14.29796 5.59121,0 9.1672,-2.79262 11.1884,-8.25826 l 14.39962,1.88966 c -3.6896,10.50071 -12.85082,17.4374 -27.14878,17.4374 -16.64208,0 -28.70355,-10.95519 -28.70355,-27.8245 m 39.09065,-6.58986 c -0.55613,-7.48086 -3.79724,-12.06147 -10.27946,-12.06147 -5.57327,0 -10.04624,4.46699 -10.50669,12.06147 l 20.78615,0"
       id="path50"
       style="fill:#231f20;fill-opacity:1;fill-rule:nonzero;stroke:none" />
  </g>
</svg>
